HIERARCHY
ROOT Hips
{
	OFFSET 0.00000 0.00000 0.00000
	CHANNELS 6 Xposition Yposition Zposition Zrotation Yrotation Xrotation 
	JOINT LHipJoint
	{
		OFFSET 0 0 0
		CHANNELS 3 Zrotation Yrotation Xrotation
		JOINT LeftHip
		{
			OFFSET 1.55766 -1.60504 1.11378
			CHANNELS 3 Zrotation Yrotation Xrotation
			JOINT LeftKnee
			{
				OFFSET 2.29047 -6.29302 0.00000
				CHANNELS 3 Zrotation Yrotation Xrotation
				JOINT LeftAnkle
				{
					OFFSET 2.52265 -6.93093 0.00000
					CHANNELS 3 Zrotation Yrotation Xrotation
					JOINT LeftToe
					{
						OFFSET 0.17633 -0.48446 2.02656
						CHANNELS 3 Zrotation Yrotation Xrotation
						End Site
						{
							OFFSET 0.00000 -0.00000 1.04989
						}
					}
				}
			}
		}
	}
	JOINT RHipJoint
	{
		OFFSET 0 0 0
		CHANNELS 3 Zrotation Yrotation Xrotation
		JOINT RightHip
		{
			OFFSET -1.48599 -1.60504 1.11378
			CHANNELS 3 Zrotation Yrotation Xrotation
			JOINT RightKnee
			{
				OFFSET -2.27280 -6.24448 0.00000
				CHANNELS 3 Zrotation Yrotation Xrotation
				JOINT RightAnkle
				{
					OFFSET -2.50834 -6.89161 0.00000
					CHANNELS 3 Zrotation Yrotation Xrotation
					JOINT RightToe
					{
						OFFSET -0.26967 -0.74090 2.08741
						CHANNELS 3 Zrotation Yrotation Xrotation
						End Site
						{
							OFFSET -0.00000 -0.00000 1.10614
						}
					}
				}
			}
		}
	}
	JOINT lowerback
	{
		OFFSET 0 0 0
		CHANNELS 3 Zrotation Yrotation Xrotation
		JOINT Chest
		{
			OFFSET 0.06481 2.02437 -0.08472
			CHANNELS 3 Zrotation Yrotation Xrotation
			JOINT Chest2
			{
				OFFSET 0.00015 1.96711 0.18069
				CHANNELS 3 Zrotation Yrotation Xrotation
				JOINT lowerneck
				{
					OFFSET 0 0 0
					CHANNELS 3 Zrotation Yrotation Xrotation
					JOINT Neck
					{
						OFFSET -0.29961 1.68293 -0.13041
						CHANNELS 3 Zrotation Yrotation Xrotation
						JOINT Head
						{
							OFFSET 0.59697 1.61501 -0.14669
							CHANNELS 3 Zrotation Yrotation Xrotation
							End Site
							{
								OFFSET 0.22973 1.74906 -0.10148
							}
						}
					}
				}
				JOINT LeftCollar
				{
					OFFSET 0 0 0
					CHANNELS 3 Zrotation Yrotation Xrotation
					JOINT LeftShoulder
					{
						OFFSET 3.37968 1.02893 0.31147
CHANNELS 3 Zrotation Xrotation Yrotation
						JOINT LeftElbow
						{
OFFSET 0 -5.198070 -0.000000
CHANNELS 3 Zrotation Xrotation Yrotation
							JOINT LeftWrist
							{
OFFSET 0 -3.093700 -0.000000
CHANNELS 3 Zrotation Xrotation Yrotation
								JOINT lhand
								{
									OFFSET 0 0 0
CHANNELS 3 Zrotation Xrotation Yrotation
									JOINT LFingers
									{
OFFSET 0 -0.672630 -0.000000
CHANNELS 3 Zrotation Xrotation Yrotation
										End Site
										{
OFFSET 0 -0.542290 -0.000000
										}
									}
								}
								JOINT LThumb
								{
OFFSET 0 0.000000 0.000000
CHANNELS 3 Zrotation Xrotation Yrotation
									End Site
									{
OFFSET 0 -0.550570 0.550570
									}
								}
							}
						}
					}
				}
				JOINT RightCollar
				{
					OFFSET 0 0 0
					CHANNELS 3 Zrotation Yrotation Xrotation
					JOINT RightShoulder
					{
						OFFSET -3.38254 0.96355 -0.16120
CHANNELS 3 Zrotation Xrotation Yrotation
						JOINT RightElbow
						{
OFFSET 0 -5.452220 -0.000000
CHANNELS 3 Zrotation Xrotation Yrotation
							JOINT RightWrist
							{
OFFSET 0 -3.012840 -0.000000
CHANNELS 3 Zrotation Xrotation Yrotation
								JOINT rhand
								{
									OFFSET 0 0 0
CHANNELS 3 Zrotation Xrotation Yrotation
									JOINT RFingers
									{
OFFSET 0 -0.622300 -0.000000
CHANNELS 3 Zrotation Xrotation Yrotation
										End Site
										{
OFFSET 0 -0.501710 -0.000000
										}
									}
								}
								JOINT RThumb
								{
OFFSET 0 0.000000 0.000000
CHANNELS 3 Zrotation Xrotation Yrotation
									End Site
									{
OFFSET 0 -0.509370 0.509370
									}
								}
							}
						}
					}
				}
			}
		}
	}
}
MOTION
Frames: 5
Frame Time: 0.008333333333333333
10.166728 15.800458 5.543200 -164.942963 -68.415586 172.716010 0.000000 0.000000 0.000000 -15.133404 -25.981915 -25.023617 6.985930 15.319959 48.821020 -3.116002 -30.351399 20.504799 5.153700 13.548701 41.470393 0.000000 0.000000 0.000000 10.894101 20.615113 -33.090044 -6.779399 -15.143212 48.034767 -0.884992 11.090890 -17.390471 -1.833036 8.508788 -24.270819 4.349008 3.448967 2.805768 -0.676417 4.766875 -5.644839 -3.537878 2.045370 -7.064229 -30.934582 -6.006755 2.865572 37.048512 -9.815912 -4.482676 18.801159 -5.635718 2.203447 0.000000 0.000000 0.000000 16.621271 -17.632193 -31.021047 133.884651 -51.300588 96.893210 29.739778 -60.983214 7.805036 0.000000 0.000000 0.000000 -7.125000 0.000000 0.000000 2.100652 21.011410 1.208687 0.000000 0.000000 0.000000 -4.119751 38.096325 50.309982 -20.773043 -31.561963 -5.930928 -5.425079 -8.398847 7.176288 0.000000 0.000000 0.000000 7.125000 0.000000 0.000000 17.909786 36.642532 3.841379
10.161664 15.720314 5.457115 -162.654459 -70.887809 170.634881 0.000000 0.000000 0.000000 -14.504877 -27.193272 -25.390279 7.122363 15.434025 49.335697 -2.917599 -30.393896 23.606275 6.084577 14.508215 45.317229 0.000000 0.000000 0.000000 9.803376 21.307481 -33.866282 -6.671087 -15.048573 47.619094 -0.805484 13.273786 -17.313453 -1.943490 8.747363 -25.008240 4.092845 3.715756 2.745939 -0.664745 5.109626 -5.699635 -3.407251 2.229143 -7.079447 -30.951891 -6.262759 3.363794 37.536915 -10.297299 -4.888827 19.029452 -5.947232 2.243142 0.000000 0.000000 0.000000 15.931662 -19.233271 -29.544313 135.948533 -50.294044 98.493229 29.501250 -60.670889 7.567023 0.000000 0.000000 0.000000 -7.125000 0.000000 0.000000 1.945367 21.303683 1.106336 0.000000 0.000000 0.000000 -6.733034 37.961323 55.563066 -20.175551 -30.853079 -5.621174 -2.766879 -6.158190 5.347305 0.000000 0.000000 0.000000 7.125000 0.000000 0.000000 19.605410 34.749082 5.193604
10.152327 15.646879 5.370483 -160.903564 -73.083426 169.106417 0.000000 0.000000 0.000000 -14.205941 -28.280157 -25.680176 7.220430 15.514723 49.703089 -2.607431 -30.106193 26.121890 6.880149 15.227395 48.414675 0.000000 0.000000 0.000000 8.456394 21.989466 -34.718273 -6.605979 -14.990856 47.367730 -0.689681 15.408811 -17.157369 -2.011844 8.890613 -25.453897 3.618226 4.065108 2.581749 -0.796939 5.535523 -5.780027 -3.304641 2.462313 -7.063531 -30.925122 -6.529872 3.868893 38.050420 -10.812487 -5.243542 19.257979 -6.281360 2.312247 0.000000 0.000000 0.000000 15.319428 -20.526911 -28.051040 138.276488 -49.052929 100.266886 29.188157 -62.164617 7.629104 0.000000 0.000000 0.000000 -7.125000 0.000000 0.000000 1.714744 21.258724 0.976675 0.000000 0.000000 0.000000 -9.291867 37.471042 61.291631 -19.519253 -30.058018 -5.288804 0.061676 -5.115757 4.040557 0.000000 0.000000 0.000000 7.125000 0.000000 0.000000 21.498508 33.375805 6.532357
10.137373 15.586010 5.284412 -159.666668 -75.107946 168.011469 0.000000 0.000000 0.000000 -14.216717 -29.348514 -25.734397 7.281082 15.564032 49.929436 -2.323001 -29.796094 27.949341 7.474945 15.718642 50.647710 0.000000 0.000000 0.000000 6.990944 22.637363 -35.401717 -6.544735 -14.936180 47.130665 -0.538089 17.482122 -16.894269 -2.006177 8.878829 -25.417065 3.054282 4.480168 2.420271 -1.069369 6.036814 -5.855113 -3.303459 2.734413 -7.037059 -30.832129 -6.805997 4.449835 38.571942 -11.361487 -5.601346 19.474902 -6.643772 2.379560 0.000000 0.000000 0.000000 14.858453 -21.513320 -26.592778 140.573706 -47.723634 101.985578 28.840236 -64.481422 7.992311 0.000000 0.000000 0.000000 -7.125000 0.000000 0.000000 1.439226 20.875033 0.831959 0.000000 0.000000 0.000000 -11.594431 36.699639 67.316574 -18.853469 -29.235732 -4.959314 2.835091 -5.580226 3.505106 0.000000 0.000000 0.000000 7.125000 0.000000 0.000000 23.483748 32.735591 7.620553
10.116563 15.542301 5.201629 -158.850182 -76.975704 167.237978 0.000000 0.000000 0.000000 -14.469627 -30.459653 -25.508785 7.295922 15.576100 49.984766 -2.117630 -29.584705 29.155407 7.860437 16.015299 52.057796 0.000000 0.000000 0.000000 5.512327 23.277965 -35.791905 -6.460414 -14.860079 46.802644 -0.339283 19.485529 -16.445891 -1.910181 8.676170 -24.787663 2.516958 4.959227 2.289760 -1.468843 6.620154 -5.913326 -3.454939 3.042677 -6.992830 -30.652371 -7.083254 5.114956 39.057438 -11.920343 -5.975773 19.653758 -7.020212 2.423438 0.000000 0.000000 0.000000 14.589922 -22.126149 -25.202688 142.599951 -46.448894 103.469764 28.447641 -66.641559 8.633837 0.000000 0.000000 0.000000 -7.125000 0.000000 0.000000 1.114246 20.182974 0.661145 0.000000 0.000000 0.000000 -13.445692 35.648815 73.283419 -18.156248 -28.356063 -4.623492 5.524238 -7.498355 3.948580 0.000000 0.000000 0.000000 7.125000 0.000000 0.000000 25.619201 32.988591 8.269286
